<svg width="303" height="303" viewBox="0 0 303 303" fill="none" xmlns="http://www.w3.org/2000/svg">
<path d="M261.432 147.002C257.858 132.515 247.537 123.236 234.778 116.702C237.689 100.558 240.554 72.6253 240.293 64.5059C239.986 54.9424 238.92 42.2306 219.225 40.1238C206.395 38.7509 195.861 43.6273 194.417 60.0082C193.873 66.1156 193.47 72.4359 193.186 78.6143L186.037 76.4128C186.179 70.7079 186.274 65.5238 186.321 61.5942C186.511 45.0002 177.657 35.6262 160.117 35.6735C144.754 35.7209 137.486 49.0008 136.942 58.6352C136.658 63.7247 137.486 78.1172 138.836 92.2256L135.806 93.6933L134.906 94.3324C133.509 85.4318 132.065 76.8863 130.977 70.8736C128.089 54.682 117.318 46.9887 104.535 48.8114C89.0063 51.0129 84.7927 64.9556 85.1004 74.5191C85.3371 81.668 89.2903 106.902 92.9121 123.709L88.1778 127.023C87.9884 125.816 87.799 124.561 87.586 123.283C87.5623 123.07 87.515 122.857 87.4913 122.644C87.3019 121.531 87.1362 120.395 86.9232 119.235C86.8758 118.975 86.8285 118.714 86.8048 118.454C86.5917 117.128 86.355 115.779 86.1183 114.43C86.1183 114.383 86.0946 114.335 86.0946 114.264C85.8579 112.82 85.5975 111.376 85.3371 109.932L85.1951 109.104C85.0057 107.967 84.7927 106.855 84.6033 105.742C84.5323 105.293 84.4376 104.843 84.3666 104.417C84.2009 103.47 84.0115 102.523 83.8458 101.576C83.7511 101.103 83.6564 100.605 83.5854 100.132C83.4197 99.2088 83.2303 98.2856 83.0646 97.3861C82.97 96.96 82.8989 96.5102 82.8043 96.0842C82.5439 94.7822 82.2835 93.5039 82.0231 92.273C78.9457 77.4781 72.1993 71.8678 60.458 73.6906C44.0061 76.2708 40.3843 92.8411 41.1891 101.6C41.9939 110.382 48.1486 140.043 52.3622 149.725C52.6463 150.34 52.954 150.932 53.2854 151.476L48.409 154.885C51.439 198.418 69.619 229.688 69.619 229.688C84.0352 255.254 95.09 259.491 112.607 263.705C132.539 268.486 156.163 267.255 159.927 267.113C199.625 265.504 225.262 256.627 246.519 224.504C251.632 216.763 260.627 205.425 263.468 180.332C264.533 170.556 263.799 156.66 261.432 147.002Z" fill="#FAC036"/>
<path d="M195.411 110.832C195.411 110.832 215.367 110.429 234.707 116.679L235.914 109.719C235.914 109.719 222.161 104.772 201.803 103.115C198.489 102.854 195.53 102.736 192.594 102.736L192.973 96.5102L195.222 54.9424C195.222 54.9424 194.606 58.0671 189.967 58.0671C188.026 58.0671 186.724 56.9072 185.99 56.0076C186.227 57.783 186.345 59.6531 186.321 61.6179L185.327 102.902C184.167 102.949 183.007 103.02 181.776 103.091C164.922 104.109 148.73 108.038 142.576 117.531C138.836 86.3313 136.942 58.6825 136.942 58.6825C134.74 64.0797 128.112 61.8072 128.112 61.8072C133.888 82.7805 136.942 133.722 136.942 133.722C138.859 155.193 124.348 158.128 124.348 158.128C106.831 162.129 98.7827 143.049 98.7827 143.049C97.2914 140.54 92.7227 117.744 89.598 101.552L86.5207 85.3134L85.6685 80.7447C85.7395 81.2418 85.8342 83.1829 82.6385 83.9168C81.0998 84.2718 79.9872 83.9404 79.3007 83.609C80.3897 86.0472 81.2892 88.9115 81.9993 92.2729C83.609 99.9426 87.3729 123.046 87.7279 124.845L88.5328 130.645C91.0893 149.843 87.6569 154.483 87.6569 154.483C82.0467 165.159 68.459 162.105 68.459 162.105C55.4158 159.832 51.2732 145.369 51.2732 145.369C49.5689 139.877 42.5146 110.642 42.5146 110.642L48.3853 154.932C49.4032 158.081 50.7761 159.241 52.1728 160.945C64.9556 176.497 82.3544 169.917 82.3544 169.917C89.0536 167.478 91.9889 162.413 91.9889 162.413C93.8589 159.359 94.8295 155.903 95.2082 152.376C104.819 170.485 124.159 167.549 124.159 167.549C136.09 165.182 141.084 156.566 143.191 149.748C143.688 150.364 144.162 150.979 144.73 151.595C144.73 151.595 152.423 163.17 185.232 158.909C196.24 157.465 197.802 157.631 204.762 158.815C204.762 158.815 219.675 162.933 214.941 175.314C214.941 175.314 213.852 179.48 208.739 185.966C208.739 185.966 204.691 191.198 211.082 191.079C212.999 191.032 216.456 189.706 219.509 187.055C219.509 187.055 222.752 184.38 224.551 177.681C224.551 177.681 231.44 160.377 214.065 151.784C204.975 147.286 198.915 148.186 189.706 149.559C189.706 149.559 160.401 152.328 150.956 144.659C150.956 144.659 142.268 137.107 147.57 125.011C147.594 124.845 156.613 108.393 195.411 110.832Z" fill="#E48C15"/>
</svg>
