<svg width="429" height="429" viewBox="0 0 429 429" fill="none" xmlns="http://www.w3.org/2000/svg">
<path d="M288.807 133.339C276.035 125.623 262.176 126.359 248.534 130.762C239.177 117.287 221.451 95.5102 215.526 89.953C208.546 83.4082 198.804 75.1728 183.388 87.6096C173.344 95.711 169.344 106.608 179.906 119.212C183.839 123.915 188.024 128.669 192.192 133.239L185.58 136.737C181.647 132.603 178.048 128.87 175.303 126.058C163.703 114.19 150.814 113.822 138.445 126.259C127.615 137.156 131.866 151.685 138.294 158.882C141.692 162.682 152.455 172.273 163.385 181.295L162.28 184.476L162.096 185.564C154.815 180.257 147.751 175.236 142.73 171.754C129.238 162.347 116.182 164.523 108.432 174.851C99.0086 187.388 105.888 200.226 112.868 206.771C118.091 211.659 138.729 226.707 153.174 236.03L152.17 241.721C151.183 241.002 150.162 240.248 149.107 239.495C148.94 239.361 148.756 239.244 148.588 239.11C147.668 238.457 146.747 237.771 145.776 237.101C145.558 236.951 145.341 236.8 145.14 236.633C144.052 235.846 142.931 235.059 141.809 234.273C141.776 234.239 141.725 234.222 141.675 234.172C140.487 233.319 139.281 232.482 138.076 231.645L137.39 231.159C136.453 230.49 135.515 229.854 134.595 229.201C134.226 228.933 133.841 228.682 133.49 228.431C132.703 227.879 131.9 227.343 131.113 226.791C130.711 226.523 130.293 226.238 129.908 225.954C129.138 225.418 128.351 224.899 127.598 224.38C127.23 224.146 126.862 223.878 126.493 223.644C125.389 222.907 124.301 222.187 123.246 221.501C110.608 213.216 101.871 214.019 94.8574 223.61C85.0486 237.068 94.2046 251.346 100.967 256.97C107.746 262.611 133.072 279.232 142.897 283.099C143.533 283.333 144.169 283.534 144.788 283.685L143.751 289.543C176.675 318.183 211.642 327.439 211.642 327.439C239.914 335.323 250.727 330.503 266.093 321.096C283.568 310.383 299.402 292.807 301.963 290.046C328.896 260.837 340.747 236.432 333.064 198.687C331.206 189.598 329.549 175.219 313.814 155.468C307.655 147.801 297.31 138.495 288.807 133.339Z" fill="#FAC036"/>
<path d="M216.547 154.447C216.547 154.447 230.373 140.051 248.467 130.795L244.399 125.02C244.399 125.02 231.176 131.247 215.609 144.47C213.082 146.63 210.906 148.638 208.83 150.714L204.696 146.044L176.893 115.061C176.893 115.061 178.667 117.705 175.386 120.986C174.014 122.359 172.273 122.459 171.118 122.342C172.541 123.43 173.947 124.669 175.32 126.075L203.809 155.97C203.022 156.823 202.252 157.694 201.432 158.614C190.234 171.252 181.563 185.48 183.923 196.544C159.217 177.127 138.327 158.916 138.327 158.916C140.587 164.289 134.293 167.369 134.293 167.369C153.208 178.115 191.389 211.977 191.389 211.977C207.926 225.803 199.741 238.139 199.741 238.139C190.183 253.355 171.001 245.554 171.001 245.554C168.172 244.835 148.822 231.946 135.164 222.706L121.505 213.4L117.672 210.772C118.074 211.073 119.513 212.379 117.772 215.157C116.935 216.496 115.914 217.049 115.195 217.3C117.689 218.254 120.35 219.643 123.229 221.518C129.791 225.803 148.789 239.478 150.312 240.499L154.982 244.031C170.365 255.798 171.219 261.506 171.219 261.506C174.801 273.022 163.033 280.471 163.033 280.471C152.204 288.087 139.047 280.789 139.047 280.789C133.959 278.111 108.298 262.427 108.298 262.427L143.767 289.594C146.713 291.1 148.504 290.949 150.697 291.167C170.733 293.125 178.383 276.169 178.383 276.169C181.396 269.708 179.889 264.051 179.889 264.051C179.052 260.569 177.295 257.439 175.068 254.677C194.669 260.686 206.269 244.935 206.269 244.935C213.031 234.825 210.47 225.2 207.139 218.89C207.926 218.974 208.696 219.074 209.533 219.108C209.533 219.108 223.158 221.853 243.345 195.64C250.107 186.836 251.329 185.848 257.087 181.764C257.087 181.764 270.545 174.131 275.952 186.233C275.952 186.233 278.128 189.949 279.098 198.151C279.098 198.151 279.935 204.712 284.371 200.109C285.693 198.72 287.2 195.339 287.484 191.305C287.484 191.305 287.886 187.12 284.421 181.111C284.421 181.111 277.056 164.004 258.694 170.214C249.086 173.462 245.437 178.383 239.897 185.865C239.897 185.865 221.133 208.545 209.031 209.801C209.031 209.801 197.548 210.604 192.744 198.302C192.644 198.168 187.388 180.157 216.547 154.447Z" fill="#E48C15"/>
</svg>
